<?xml version="1.0" encoding="UTF-8" standalone="no"?>
<!-- Created with Inkscape (http://www.inkscape.org/) -->

<svg
   width="210mm"
   height="297mm"
   viewBox="0 0 210 297"
   version="1.1"
   id="svg5"
   inkscape:version="1.2.2 (b0a8486541, 2022-12-01)"
   sodipodi:docname="CollectiveIllu.svg"
   xmlns:inkscape="http://www.inkscape.org/namespaces/inkscape"
   xmlns:sodipodi="http://sodipodi.sourceforge.net/DTD/sodipodi-0.dtd"
   xmlns="http://www.w3.org/2000/svg"
   xmlns:svg="http://www.w3.org/2000/svg">
  <sodipodi:namedview
     id="namedview7"
     pagecolor="#ffffff"
     bordercolor="#000000"
     borderopacity="0.25"
     inkscape:showpageshadow="2"
     inkscape:pageopacity="0.0"
     inkscape:pagecheckerboard="0"
     inkscape:deskcolor="#d1d1d1"
     inkscape:document-units="mm"
     showgrid="false"
     inkscape:zoom="1.8761364"
     inkscape:cx="465.05148"
     inkscape:cy="648.94004"
     inkscape:window-width="2536"
     inkscape:window-height="1380"
     inkscape:window-x="12"
     inkscape:window-y="48"
     inkscape:window-maximized="1"
     inkscape:current-layer="layer1" />
  <defs
     id="defs2">
    <marker
       style="overflow:visible"
       id="marker1503"
       refX="0"
       refY="0"
       orient="auto-start-reverse"
       inkscape:stockid="Arrow1"
       markerWidth="4.0606599"
       markerHeight="6.7071061"
       viewBox="0 0 4.0606602 6.7071068"
       inkscape:isstock="true"
       inkscape:collect="always"
       preserveAspectRatio="xMidYMid">
      <path
         style="fill:none;stroke:context-stroke;stroke-width:1;stroke-linecap:butt"
         d="M 3,-3 0,0 3,3"
         id="path1501"
         transform="rotate(180,0.125,0)"
         sodipodi:nodetypes="ccc" />
    </marker>
    <marker
       style="overflow:visible"
       id="Arrow1"
       refX="0"
       refY="0"
       orient="auto-start-reverse"
       inkscape:stockid="Arrow1"
       markerWidth="4.0606604"
       markerHeight="6.7071066"
       viewBox="0 0 4.0606602 6.7071068"
       inkscape:isstock="true"
       inkscape:collect="always"
       preserveAspectRatio="xMidYMid">
      <path
         style="fill:none;stroke:context-stroke;stroke-width:1;stroke-linecap:butt"
         d="M 3,-3 0,0 3,3"
         id="path5057"
         transform="rotate(180,0.125,0)"
         sodipodi:nodetypes="ccc" />
    </marker>
  </defs>
  <g
     inkscape:label="Layer 1"
     inkscape:groupmode="layer"
     id="layer1">
    <path
       style="fill:none;stroke:#000000;stroke-width:0.156;stroke-dasharray:none;stroke-dashoffset:0"
       d="m 33.675735,124.7609 35.502447,-21.17948 -0.387571,98.63297 -34.84859,16.72809 z"
       id="path1064" />
    <path
       style="fill:#bedbff;stroke:#999999;stroke-width:0.156"
       d="m 71.260292,134.32144 c -27.63937,7.31797 -11.582813,13.21203 -17.583724,18.84869 -6.000909,5.63666 -17.229833,5.43678 -16.736176,15.56561 0.493654,10.12884 -0.680424,18.783 5.745154,20.67819 6.425581,1.89518 6.60658,1.89518 6.60658,1.89518 0,0 21.712342,8.51138 29.041905,5.98479 7.32956,-2.52659 20.25902,-7.00706 19.63621,-15.38593 -0.6228,-8.37888 3.633199,-35.15867 -2.04622,-40.91229 -5.67942,-5.75362 -12.03842,-7.81639 -17.097,-7.51357 -5.058574,0.30282 -7.566729,0.83933 -7.566729,0.83933 z"
       id="path236" />
    <path
       style="fill:#bedbff;stroke:#999999;stroke-width:0.107287"
       d="m 173.98521,158.6788 c 11.55982,1.89751 11.91519,4.63651 11.28885,6.16166 -0.62635,1.52514 1.90544,2.07726 2.09823,3.76204 0.19278,1.68478 -0.0205,2.70425 -1.21702,3.83302 -1.19648,1.12878 -0.38137,1.93471 0.30173,4.38413 0.6831,2.44942 0.47179,4.1903 -1.03167,3.82552 -1.50346,-0.3648 -12.50167,-0.73906 -14.78521,-1.86043 -5.3181,-2.61155 -2.12605,-6.76395 -3.7703,-9.68275 -5.93693,-10.53908 7.11539,-10.42319 7.11539,-10.42319 z"
       id="path238"
       sodipodi:nodetypes="csssssssc" />
    <path
       style="fill:none;stroke:#000000;stroke-width:0.156"
       d="m 103.61821,126.95533 -27.00381,12.53614 1.595904,63.23496 25.283156,-11.525 z"
       id="path444" />
    <path
       style="fill:none;stroke:#000000;stroke-width:0.156;stroke-dasharray:0.46800001,0.46800001;stroke-dashoffset:0"
       d="M 33.597344,124.73802 167.26897,170.52656 33.635685,219.08117"
       id="path506" />
    <path
       style="fill:none;stroke:#000000;stroke-width:0.156;stroke-dasharray:0.468, 0.468;stroke-dashoffset:0"
       d="m 69.111171,103.50232 98.087539,67.01949 -98.866821,31.84417"
       id="path1062" />
    <text
       xml:space="preserve"
       style="font-size:4.58611px;fill:#000000;stroke:none;stroke-width:0.156;stroke-dasharray:none;stroke-dashoffset:0"
       x="68.901794"
       y="167.5692"
       id="text1120"><tspan
         sodipodi:role="line"
         id="tspan1118"
         style="font-size:4.58611px;fill:#000000;stroke:none;stroke-width:0.156"
         x="68.901794"
         y="167.5692">B</tspan></text>
    <text
       xml:space="preserve"
       style="font-size:4.5861px;fill:#000000;stroke:none;stroke-width:0.156;stroke-dasharray:none;stroke-dashoffset:0"
       x="175.45924"
       y="171.08002"
       id="text1226"><tspan
         sodipodi:role="line"
         id="tspan1224"
         style="stroke-width:0.156"
         x="175.45924"
         y="171.08002">A</tspan></text>
    <path
       style="fill:none;stroke:#000000;stroke-width:0.256;stroke-dasharray:none;stroke-dashoffset:0;marker-start:url(#Arrow1);marker-end:url(#marker1503)"
       d="m 80.010293,206.56078 85.974617,-32.887"
       id="path1282" />
    <path
       style="fill:none;stroke:#000000;stroke-width:0.256;stroke-dasharray:none;stroke-dashoffset:0;marker-start:url(#marker1503);marker-end:url(#marker1503)"
       d="M 79.456959,206.85076 34.903828,222.84238"
       id="path1555" />
    <path
       style="fill:none;stroke:#000000;stroke-width:0.256;stroke-dasharray:none;stroke-dashoffset:0;marker-start:url(#marker1503);marker-end:url(#marker1503)"
       d="M 32.974064,123.24188 68.004601,102.08604"
       id="path1623" />
    <text
       xml:space="preserve"
       style="font-size:4.5861px;fill:#000000;stroke:none;stroke-width:0.256;stroke-dasharray:none;stroke-dashoffset:0"
       x="55.772369"
       y="220.12584"
       id="text1811"><tspan
         sodipodi:role="line"
         id="tspan1809"
         style="fill:#000000;stroke:none;stroke-width:0.256"
         x="55.772369"
         y="220.12584">Δr</tspan></text>
    <text
       xml:space="preserve"
       style="font-size:4.5861px;fill:#000000;stroke:none;stroke-width:0.256;stroke-dasharray:none;stroke-dashoffset:0"
       x="46.314632"
       y="111.16441"
       id="text1811-7"><tspan
         sodipodi:role="line"
         id="tspan1809-5"
         style="fill:#000000;stroke:none;stroke-width:0.256"
         x="46.314632"
         y="111.16441">Δr</tspan></text>
    <text
       xml:space="preserve"
       style="font-size:4.5861px;fill:#000000;stroke:none;stroke-width:0.256;stroke-dasharray:none;stroke-dashoffset:0"
       x="121.30421"
       y="195.42796"
       id="text1811-3"
       inkscape:export-filename="../figures/Collective.pdf"
       inkscape:export-xdpi="96"
       inkscape:export-ydpi="96"><tspan
         sodipodi:role="line"
         id="tspan1809-6"
         style="fill:#000000;stroke:none;stroke-width:0.256"
         x="121.30421"
         y="195.42796">r</tspan></text>
  </g>
</svg>
